<svg width="400" height="300" viewBox="0 0 400 300" fill="none" xmlns="http://www.w3.org/2000/svg">
  <!-- Background -->
  <rect width="400" height="300" fill="#f8fafc" rx="8"/>
  
  <!-- Header -->
  <rect x="20" y="20" width="360" height="40" fill="#ffffff" rx="6"/>
  <rect x="30" y="30" width="80" height="20" fill="#e2e8f0" rx="4"/>
  <rect x="320" y="30" width="50" height="20" fill="#3b82f6" rx="4"/>
  
  <!-- Chart Area -->
  <rect x="20" y="80" width="360" height="180" fill="#ffffff" rx="6"/>
  
  <!-- Chart Title -->
  <rect x="30" y="90" width="120" height="16" fill="#1e293b" rx="2"/>
  
  <!-- Chart Lines -->
  <path d="M40 200 L80 180 L120 160 L160 140 L200 120 L240 100 L280 90 L320 80 L360 70" stroke="#3b82f6" stroke-width="3" fill="none"/>
  <path d="M40 220 L80 210 L120 200 L160 190 L200 180 L240 170 L280 160 L320 150 L360 140" stroke="#10b981" stroke-width="3" fill="none"/>
  
  <!-- Chart Points -->
  <circle cx="40" cy="200" r="4" fill="#3b82f6"/>
  <circle cx="120" cy="160" r="4" fill="#3b82f6"/>
  <circle cx="200" cy="120" r="4" fill="#3b82f6"/>
  <circle cx="280" cy="90" r="4" fill="#3b82f6"/>
  <circle cx="360" cy="70" r="4" fill="#3b82f6"/>
  
  <circle cx="40" cy="220" r="4" fill="#10b981"/>
  <circle cx="120" cy="200" r="4" fill="#10b981"/>
  <circle cx="200" cy="180" r="4" fill="#10b981"/>
  <circle cx="280" cy="160" r="4" fill="#10b981"/>
  <circle cx="360" cy="140" r="4" fill="#10b981"/>
  
  <!-- Legend -->
  <rect x="30" y="240" width="12" height="3" fill="#3b82f6"/>
  <rect x="50" y="240" width="60" height="12" fill="#f1f5f9" rx="2"/>
  
  <rect x="130" y="240" width="12" height="3" fill="#10b981"/>
  <rect x="150" y="240" width="60" height="12" fill="#f1f5f9" rx="2"/>
  
  <!-- Stats Cards -->
  <rect x="280" y="110" width="90" height="50" fill="#f8fafc" rx="4" stroke="#e2e8f0"/>
  <rect x="290" y="120" width="30" height="8" fill="#1e293b" rx="2"/>
  <rect x="290" y="135" width="50" height="12" fill="#3b82f6" rx="2"/>
  
  <rect x="280" y="170" width="90" height="50" fill="#f8fafc" rx="4" stroke="#e2e8f0"/>
  <rect x="290" y="180" width="30" height="8" fill="#1e293b" rx="2"/>
  <rect x="290" y="195" width="50" height="12" fill="#10b981" rx="2"/>
</svg>