<svg width="200" height="200" viewBox="0 0 200 200" xmlns="http://www.w3.org/2000/svg">
  <defs>
    <linearGradient id="skinGradient" x1="0%" y1="0%" x2="100%" y2="100%">
      <stop offset="0%" style="stop-color:#fbbf24;stop-opacity:1" />
      <stop offset="100%" style="stop-color:#f59e0b;stop-opacity:1" />
    </linearGradient>
    <linearGradient id="hairGradient" x1="0%" y1="0%" x2="100%" y2="100%">
      <stop offset="0%" style="stop-color:#92400e;stop-opacity:1" />
      <stop offset="100%" style="stop-color:#78350f;stop-opacity:1" />
    </linearGradient>
    <linearGradient id="outfitGradient" x1="0%" y1="0%" x2="100%" y2="100%">
      <stop offset="0%" style="stop-color:#3b82f6;stop-opacity:1" />
      <stop offset="100%" style="stop-color:#1e40af;stop-opacity:1" />
    </linearGradient>
    <radialGradient id="backgroundGradient" cx="50%" cy="50%" r="50%">
      <stop offset="0%" style="stop-color:#f3f4f6;stop-opacity:1" />
      <stop offset="100%" style="stop-color:#e5e7eb;stop-opacity:1" />
    </radialGradient>
  </defs>
  
  <!-- Background Circle -->
  <circle cx="100" cy="100" r="100" fill="url(#backgroundGradient)"/>
  
  <!-- Body/Shoulders -->
  <ellipse cx="100" cy="180" rx="60" ry="40" fill="url(#outfitGradient)"/>
  
  <!-- Neck -->
  <rect x="90" y="140" width="20" height="25" rx="10" fill="url(#skinGradient)"/>
  
  <!-- Face -->
  <circle cx="100" cy="120" r="35" fill="url(#skinGradient)"/>
  
  <!-- Hair -->
  <path d="M 65 100 Q 100 70 135 100 Q 130 85 100 80 Q 70 85 65 100 Z" fill="url(#hairGradient)"/>
  <ellipse cx="100" cy="95" rx="40" ry="25" fill="url(#hairGradient)"/>
  
  <!-- Eyes -->
  <circle cx="90" cy="115" r="3" fill="#374151"/>
  <circle cx="110" cy="115" r="3" fill="#374151"/>
  <circle cx="91" cy="114" r="1" fill="white"/>
  <circle cx="111" cy="114" r="1" fill="white"/>
  
  <!-- Eyebrows -->
  <path d="M 85 108 Q 90 106 95 108" stroke="#78350f" stroke-width="2" fill="none" stroke-linecap="round"/>
  <path d="M 105 108 Q 110 106 115 108" stroke="#78350f" stroke-width="2" fill="none" stroke-linecap="round"/>
  
  <!-- Nose -->
  <ellipse cx="100" cy="122" rx="2" ry="4" fill="#f59e0b" opacity="0.6"/>
  
  <!-- Mouth -->
  <path d="M 95 130 Q 100 135 105 130" stroke="#dc2626" stroke-width="2" fill="none" stroke-linecap="round"/>
  
  <!-- Fitness Elements -->
  <!-- Small dumbbell icon -->
  <g transform="translate(140, 60) scale(0.5)">
    <rect x="0" y="8" width="20" height="4" rx="2" fill="#6b7280"/>
    <circle cx="0" cy="10" r="6" fill="#6b7280"/>
    <circle cx="20" cy="10" r="6" fill="#6b7280"/>
  </g>
  
  <!-- Fitness band/watch -->
  <rect x="75" y="175" width="15" height="8" rx="4" fill="#1f2937"/>
  <rect x="77" y="177" width="11" height="4" rx="2" fill="#3b82f6"/>
  
  <!-- Athletic wear details -->
  <path d="M 80 160 Q 100 155 120 160" stroke="white" stroke-width="1" fill="none" opacity="0.7"/>
  
  <!-- Confident expression enhancement -->
  <path d="M 88 112 Q 92 110 96 112" stroke="#78350f" stroke-width="1.5" fill="none" stroke-linecap="round"/>
  <path d="M 104 112 Q 108 110 112 112" stroke="#78350f" stroke-width="1.5" fill="none" stroke-linecap="round"/>
</svg>